# Blender 4.0.2
# www.blender.org
mtllib stairs16cm.mtl
o 实体
v 0.000000 0.799999 -0.715225
v 0.000000 0.800000 0.784774
v 0.300000 0.799999 -0.715225
v 0.300000 0.800000 0.784774
v -0.300000 0.799999 -0.715225
v -0.300000 0.800000 0.784774
v 0.300000 0.640000 -0.715225
v 0.300000 0.640000 0.784774
v 0.600000 0.640000 -0.715225
v 0.600000 0.480000 -0.715225
v 0.899999 0.480000 -0.715225
v 0.899999 0.320000 -0.715225
v 1.199999 0.320000 -0.715225
v 1.199999 0.160000 -0.715225
v 1.499999 0.160000 -0.715225
v 1.499999 0.000000 -0.715225
v 0.000000 0.000000 -0.715225
v 0.600000 0.640000 0.784774
v 0.600000 0.480000 0.784774
v 0.899999 0.480000 0.784774
v 0.899999 0.320000 0.784774
v 1.199999 0.320000 0.784774
v 1.199999 0.160000 0.784774
v 1.499999 0.160000 0.784774
v 1.499999 0.000000 0.784774
v 0.000000 0.000000 0.784774
v -0.300000 0.640000 -0.715225
v -0.300000 0.640000 0.784774
v -0.600000 0.640000 -0.715225
v -0.600000 0.480000 -0.715225
v -0.899999 0.480000 -0.715225
v -0.899999 0.320000 -0.715225
v -1.199999 0.320000 -0.715225
v -1.199999 0.160000 -0.715225
v -1.499999 0.160000 -0.715225
v -1.499999 0.000000 -0.715225
v -0.600000 0.640000 0.784774
v -0.600000 0.480000 0.784774
v -0.899999 0.480000 0.784774
v -0.899999 0.320000 0.784774
v -1.199999 0.320000 0.784774
v -1.199999 0.160000 0.784774
v -1.499999 0.160000 0.784774
v -1.499999 0.000000 0.784774
vn -0.0000 1.0000 -0.0000
vn 1.0000 -0.0000 -0.0000
vn -0.0000 -0.0000 -1.0000
vn -0.0000 -0.0000 1.0000
vn -1.0000 -0.0000 -0.0000
vn -0.0000 -1.0000 -0.0000
s 0
usemtl color_cccccc
f 1//1 2//1 4//1 3//1
f 5//1 6//1 2//1 1//1
f 3//2 4//2 8//2 7//2
f 1//3 3//3 7//3 9//3 10//3 11//3 12//3 13//3 14//3 15//3 16//3 17//3
f 26//4 25//4 24//4 23//4 22//4 21//4 20//4 19//4 18//4 8//4 4//4 2//4
f 27//5 28//5 6//5 5//5
f 17//3 36//3 35//3 34//3 33//3 32//3 31//3 30//3 29//3 27//3 5//3 1//3
f 2//4 6//4 28//4 37//4 38//4 39//4 40//4 41//4 42//4 43//4 44//4 26//4
f 7//1 8//1 18//1 9//1
f 9//2 18//2 19//2 10//2
f 10//1 19//1 20//1 11//1
f 11//2 20//2 21//2 12//2
f 12//1 21//1 22//1 13//1
f 13//2 22//2 23//2 14//2
f 14//1 23//1 24//1 15//1
f 15//2 24//2 25//2 16//2
f 16//6 25//6 26//6 17//6
f 29//1 37//1 28//1 27//1
f 30//5 38//5 37//5 29//5
f 31//1 39//1 38//1 30//1
f 32//5 40//5 39//5 31//5
f 33//1 41//1 40//1 32//1
f 34//5 42//5 41//5 33//5
f 35//1 43//1 42//1 34//1
f 36//5 44//5 43//5 35//5
f 17//6 26//6 44//6 36//6
