# Blender 4.1.1
# www.blender.org
mtllib stairs.mtl
o Unnamed-实体Mirrored
v 0.499994 0.749990 -0.978588
v 0.000000 0.749990 -0.978588
v 0.000000 0.749990 1.021387
v 0.499994 0.749990 1.021387
v -0.499994 0.749990 -0.978588
v -0.499994 0.749990 1.021387
v 0.499994 0.599992 -0.978588
v 0.499994 0.599992 1.021387
v 0.000000 0.000000 -0.978588
v 0.849989 0.449994 -0.978588
v 0.849989 0.599992 -0.978588
v 1.199985 0.299996 -0.978588
v 1.199985 0.449994 -0.978588
v 1.549980 0.149998 -0.978588
v 1.549980 0.299996 -0.978588
v 1.899976 0.149998 -0.978588
v 1.899976 0.000000 -0.978588
v 0.000000 -0.000000 1.021387
v 0.849989 0.449994 1.021387
v 0.849989 0.599992 1.021387
v 1.199985 0.299996 1.021387
v 1.199985 0.449994 1.021387
v 1.549980 0.149998 1.021387
v 1.549980 0.299996 1.021387
v 1.899976 -0.000000 1.021387
v 1.899976 0.149998 1.021387
v -0.499994 0.599992 1.021387
v -0.499994 0.599992 -0.978588
v -0.849989 0.449994 -0.978588
v -0.849989 0.599992 -0.978588
v -1.199985 0.299996 -0.978588
v -1.199985 0.449994 -0.978588
v -1.549980 0.149998 -0.978588
v -1.549980 0.299996 -0.978588
v -1.899976 0.000000 -0.978588
v -1.899976 0.149998 -0.978588
v -0.849989 0.449994 1.021387
v -0.849989 0.599992 1.021387
v -1.199985 0.299996 1.021387
v -1.199985 0.449994 1.021387
v -1.549980 0.149998 1.021387
v -1.549980 0.299996 1.021387
v -1.899976 0.149998 1.021387
v -1.899976 -0.000000 1.021387
vn -0.0000 1.0000 -0.0000
vn 1.0000 -0.0000 -0.0000
vn -0.0000 -0.0000 -1.0000
vn -0.0000 -0.0000 1.0000
vn -1.0000 -0.0000 -0.0000
vn -0.0000 -1.0000 -0.0000
s 0
f 1//1 2//1 3//1
f 1//1 3//1 4//1
f 2//1 5//1 3//1
f 3//1 5//1 6//1
f 7//2 1//2 4//2
f 7//2 4//2 8//2
f 7//3 9//3 2//3
f 1//3 7//3 2//3
f 10//3 9//3 7//3
f 11//3 10//3 7//3
f 12//3 9//3 10//3
f 13//3 12//3 10//3
f 14//3 9//3 12//3
f 15//3 14//3 12//3
f 16//3 17//3 14//3
f 17//3 9//3 14//3
f 18//4 8//4 3//4
f 8//4 4//4 3//4
f 18//4 19//4 8//4
f 19//4 20//4 8//4
f 18//4 21//4 19//4
f 21//4 22//4 19//4
f 18//4 23//4 21//4
f 23//4 24//4 21//4
f 25//4 26//4 23//4
f 18//4 25//4 23//4
f 6//5 5//5 27//5
f 5//5 28//5 27//5
f 9//3 28//3 2//3
f 28//3 5//3 2//3
f 9//3 29//3 28//3
f 29//3 30//3 28//3
f 9//3 31//3 29//3
f 31//3 32//3 29//3
f 9//3 33//3 31//3
f 33//3 34//3 31//3
f 35//3 36//3 33//3
f 9//3 35//3 33//3
f 27//4 18//4 3//4
f 6//4 27//4 3//4
f 37//4 18//4 27//4
f 38//4 37//4 27//4
f 39//4 18//4 37//4
f 40//4 39//4 37//4
f 41//4 18//4 39//4
f 42//4 41//4 39//4
f 43//4 44//4 41//4
f 44//4 18//4 41//4
f 11//1 7//1 8//1
f 11//1 8//1 20//1
f 10//2 11//2 20//2
f 10//2 20//2 19//2
f 13//1 10//1 19//1
f 13//1 19//1 22//1
f 12//2 13//2 22//2
f 12//2 22//2 21//2
f 15//1 12//1 21//1
f 15//1 21//1 24//1
f 14//2 15//2 24//2
f 14//2 24//2 23//2
f 16//1 14//1 23//1
f 16//1 23//1 26//1
f 17//2 16//2 26//2
f 17//2 26//2 25//2
f 17//6 25//6 18//6
f 9//6 17//6 18//6
f 28//1 30//1 27//1
f 27//1 30//1 38//1
f 38//5 30//5 37//5
f 30//5 29//5 37//5
f 29//1 32//1 37//1
f 37//1 32//1 40//1
f 40//5 32//5 39//5
f 32//5 31//5 39//5
f 31//1 34//1 39//1
f 39//1 34//1 42//1
f 42//5 34//5 41//5
f 34//5 33//5 41//5
f 33//1 36//1 41//1
f 41//1 36//1 43//1
f 43//5 36//5 44//5
f 36//5 35//5 44//5
f 35//6 9//6 44//6
f 44//6 9//6 18//6
