# Blender 4.0.2
# www.blender.org
mtllib terrain.mtl
o terrain1
v 11.634130 -0.000089 -0.476906
v 10.634130 -0.000089 -0.476906
v 10.634130 0.099911 -0.476906
v 11.634130 0.099911 -0.476906
v 10.634130 -0.000089 0.523093
v 10.634130 0.099911 0.523093
v 11.634130 -0.000089 0.523093
v 11.634130 0.099911 0.523093
v 10.684131 -0.000089 0.437738
v 10.684131 -0.000089 0.473093
v 10.719486 -0.000089 0.473093
v 11.134130 -0.000089 0.473093
v 10.684131 -0.000089 0.023094
v 10.684131 -0.000089 -0.426906
v 10.684131 -0.000089 -0.047617
v 11.584130 -0.000089 0.473093
v 11.204841 -0.000089 0.473093
v 11.063420 -0.000089 -0.426906
v 11.584130 -0.000089 0.093804
v 11.134130 -0.000089 -0.426906
v 11.548775 -0.000089 -0.426906
v 11.584130 -0.000089 -0.426906
v 11.584130 -0.000089 -0.391551
v 11.584130 -0.000089 0.023094
v 10.684131 0.099911 0.437738
v 10.684131 0.099911 0.473093
v 10.719486 0.099911 0.473093
v 11.134130 0.099911 0.473093
v 10.684131 0.099911 0.023094
v 10.684131 0.099911 -0.426906
v 10.684131 0.099911 -0.047617
v 11.584130 0.099911 0.473093
v 11.204841 0.099911 0.473093
v 11.063420 0.099911 -0.426906
v 11.584130 0.099911 0.093804
v 11.134130 0.099911 -0.426906
v 11.548775 0.099911 -0.426906
v 11.584130 0.099911 -0.426906
v 11.584130 0.099911 -0.391551
v 11.584130 0.099911 0.023094
vn -0.0000 -0.0000 -1.0000
vn -1.0000 -0.0000 -0.0000
vn 1.0000 -0.0000 -0.0000
vn -0.0000 -1.0000 -0.0000
vn -0.0000 1.0000 -0.0000
vn -0.0000 -0.0000 1.0000
vn -0.7071 -0.0000 -0.7071
vn 0.7071 -0.0000 0.7071
s 0
f 1//1 2//1 3//1
f 1//1 3//1 4//1
f 2//2 5//2 6//2
f 2//2 6//2 3//2
f 7//3 1//3 4//3
f 7//3 4//3 8//3
f 5//4 9//4 10//4
f 10//4 11//4 5//4
f 11//4 12//4 5//4
f 5//4 13//4 9//4
f 2//4 14//4 15//4
f 16//4 7//4 17//4
f 17//4 7//4 12//4
f 12//4 7//4 5//4
f 2//4 18//4 14//4
f 16//4 19//4 7//4
f 20//4 1//4 21//4
f 21//4 1//4 22//4
f 22//4 1//4 23//4
f 23//4 1//4 24//4
f 5//4 2//4 13//4
f 13//4 2//4 15//4
f 1//4 7//4 24//4
f 24//4 7//4 19//4
f 2//4 1//4 18//4
f 18//4 1//4 20//4
f 25//5 6//5 26//5
f 27//5 26//5 6//5
f 28//5 27//5 6//5
f 29//5 6//5 25//5
f 30//5 3//5 31//5
f 8//5 32//5 33//5
f 8//5 33//5 28//5
f 8//5 28//5 6//5
f 34//5 3//5 30//5
f 35//5 32//5 8//5
f 4//5 36//5 37//5
f 4//5 37//5 38//5
f 4//5 38//5 39//5
f 4//5 39//5 40//5
f 3//5 6//5 29//5
f 3//5 29//5 31//5
f 8//5 4//5 40//5
f 8//5 40//5 35//5
f 4//5 3//5 34//5
f 4//5 34//5 36//5
f 5//6 7//6 8//6
f 5//6 8//6 6//6
f 14//6 18//6 30//6
f 30//6 18//6 34//6
f 15//4 18//4 13//4
f 18//4 20//4 13//4
f 20//6 21//6 36//6
f 36//6 21//6 37//6
f 9//4 11//4 10//4
f 11//4 21//4 23//4
f 9//4 21//4 11//4
f 21//4 22//4 23//4
f 23//2 24//2 39//2
f 39//2 24//2 40//2
f 12//4 24//4 17//4
f 17//4 24//4 19//4
f 19//2 32//2 35//2
f 19//2 16//2 32//2
f 16//1 33//1 32//1
f 16//1 17//1 33//1
f 12//1 11//1 28//1
f 28//1 11//1 27//1
f 9//3 13//3 25//3
f 25//3 13//3 29//3
f 15//3 30//3 31//3
f 15//3 14//3 30//3
f 34//5 31//5 29//5
f 36//5 34//5 29//5
f 27//5 25//5 26//5
f 37//5 27//5 39//5
f 37//5 25//5 27//5
f 38//5 37//5 39//5
f 40//5 28//5 33//5
f 40//5 33//5 35//5
f 18//7 15//7 34//7
f 34//7 15//7 31//7
f 13//8 20//8 29//8
f 29//8 20//8 36//8
f 21//7 25//7 37//7
f 21//7 9//7 25//7
f 11//8 23//8 27//8
f 27//8 23//8 39//8
f 24//7 12//7 40//7
f 40//7 12//7 28//7
f 17//8 35//8 33//8
f 17//8 19//8 35//8
o terrain2
v 5.608220 0.243478 0.043322
v 5.108220 0.113478 0.043322
v 5.108220 0.113478 0.543321
v 5.608220 0.243478 0.543321
v 5.608220 0.083478 0.043322
v 5.608220 0.083478 0.543321
v 5.108220 0.083478 0.043322
v 5.108220 0.083478 0.543321
v 5.108220 0.092813 0.523321
v 5.108220 0.083478 0.523321
v 5.108220 0.083478 0.063322
v 5.108220 0.092813 0.063322
v 5.588220 0.083478 0.523321
v 5.588220 0.083478 0.063322
v 5.588220 0.217613 0.523321
v 5.588220 0.217613 0.063322
v 5.108220 0.083478 0.063322
v 5.108220 0.092813 0.063322
vn -0.2516 0.9678 -0.0000
vn 1.0000 -0.0000 -0.0000
vn -0.0000 -0.0000 -1.0000
vn -0.0000 -0.0000 1.0000
vn -1.0000 -0.0000 -0.0000
vn -0.0000 -1.0000 -0.0000
vn 0.2516 -0.9678 -0.0000
s 0
f 41//9 42//9 43//9
f 41//9 43//9 44//9
f 45//10 41//10 44//10
f 45//10 44//10 46//10
f 45//11 47//11 42//11
f 41//11 45//11 42//11
f 48//12 46//12 43//12
f 46//12 44//12 43//12
f 49//13 50//13 48//13
f 43//13 49//13 48//13
f 47//13 51//13 52//13
f 42//13 52//13 49//13
f 42//13 47//13 52//13
f 42//13 49//13 43//13
f 48//14 53//14 46//14
f 54//14 46//14 53//14
f 45//14 46//14 54//14
f 50//14 53//14 48//14
f 47//14 54//14 51//14
f 47//14 45//14 54//14
f 52//15 55//15 49//15
f 52//15 56//15 55//15
f 56//13 54//13 55//13
f 55//13 54//13 53//13
f 57//12 54//12 58//12
f 54//12 56//12 58//12
f 53//11 50//11 49//11
f 55//11 53//11 49//11
o terrain4
v 6.212268 0.124698 0.643321
v 5.012269 0.124698 0.643321
v 5.012269 0.004699 0.643321
v 6.212268 0.004699 0.643321
v 5.012269 0.124698 -0.556678
v 5.012269 0.004698 -0.556678
v 6.212268 0.124698 -0.556678
v 6.212268 0.004698 -0.556678
v 6.162269 0.124698 -0.506678
v 5.062269 0.124698 -0.506678
v 5.062269 0.124698 0.593321
v 6.162269 0.124698 0.593321
v 5.062269 0.024698 -0.506678
v 5.062269 0.024699 0.593321
v 6.162269 0.024698 -0.506678
v 6.162269 0.024699 0.593321
vn -0.0000 -0.0000 1.0000
vn -1.0000 -0.0000 -0.0000
vn 1.0000 -0.0000 -0.0000
vn -0.0000 1.0000 -0.0000
vn -0.0000 -1.0000 -0.0000
vn -0.0000 -0.0000 -1.0000
s 0
f 59//16 60//16 61//16
f 59//16 61//16 62//16
f 60//17 63//17 64//17
f 60//17 64//17 61//17
f 65//18 59//18 62//18
f 65//18 62//18 66//18
f 63//19 67//19 65//19
f 68//19 67//19 63//19
f 60//19 69//19 63//19
f 63//19 69//19 68//19
f 70//19 59//19 67//19
f 67//19 59//19 65//19
f 60//19 59//19 69//19
f 69//19 59//19 70//19
f 62//20 61//20 64//20
f 62//20 64//20 66//20
f 63//21 65//21 66//21
f 63//21 66//21 64//21
f 68//18 69//18 71//18
f 71//18 69//18 72//18
f 67//16 68//16 73//16
f 73//16 68//16 71//16
f 70//17 67//17 74//17
f 74//17 67//17 73//17
f 69//21 70//21 72//21
f 72//21 70//21 74//21
f 72//19 74//19 71//19
f 71//19 74//19 73//19
o terrain2.001
v 5.638850 0.243478 0.057544
v 5.638850 0.113478 0.557543
v 6.138849 0.113478 0.557543
v 6.138849 0.243478 0.057544
v 5.638850 0.083478 0.057544
v 6.138849 0.083478 0.057544
v 5.638850 0.083478 0.557543
v 6.138849 0.083478 0.557543
v 6.118849 0.092813 0.557543
v 6.118849 0.083478 0.557543
v 5.658850 0.083478 0.557543
v 5.658850 0.092813 0.557543
v 6.118849 0.083478 0.077544
v 5.658850 0.083478 0.077544
v 6.118849 0.217613 0.077544
v 5.658850 0.217613 0.077544
v 5.658850 0.083478 0.557543
v 5.658850 0.092813 0.557543
vn -0.0000 0.9678 0.2516
vn -0.0000 -0.0000 -1.0000
vn -1.0000 -0.0000 -0.0000
vn 1.0000 -0.0000 -0.0000
vn -0.0000 -0.0000 1.0000
vn -0.0000 -1.0000 -0.0000
vn -0.0000 -0.9678 -0.2516
s 0
f 75//22 76//22 77//22
f 75//22 77//22 78//22
f 79//23 75//23 78//23
f 79//23 78//23 80//23
f 79//24 81//24 76//24
f 75//24 79//24 76//24
f 82//25 80//25 77//25
f 80//25 78//25 77//25
f 83//26 84//26 82//26
f 77//26 83//26 82//26
f 81//26 85//26 86//26
f 76//26 86//26 83//26
f 76//26 81//26 86//26
f 76//26 83//26 77//26
f 82//27 87//27 80//27
f 88//27 80//27 87//27
f 79//27 80//27 88//27
f 84//27 87//27 82//27
f 81//27 88//27 85//27
f 81//27 79//27 88//27
f 86//28 89//28 83//28
f 86//28 90//28 89//28
f 90//26 88//26 89//26
f 89//26 88//26 87//26
f 91//25 88//25 92//25
f 88//25 90//25 92//25
f 87//24 84//24 83//24
f 89//24 87//24 83//24
o terrain2.002
v 5.608084 0.243478 0.031635
v 5.608084 0.113478 -0.468364
v 5.108085 0.113478 -0.468364
v 5.108085 0.243478 0.031635
v 5.608084 0.083478 0.031635
v 5.108085 0.083478 0.031635
v 5.608084 0.083478 -0.468364
v 5.108085 0.083478 -0.468364
v 5.128085 0.092813 -0.468364
v 5.128085 0.083478 -0.468364
v 5.588084 0.083478 -0.468364
v 5.588084 0.092813 -0.468364
v 5.128085 0.083478 0.011635
v 5.588084 0.083478 0.011635
v 5.128085 0.217613 0.011635
v 5.588084 0.217613 0.011635
v 5.588084 0.083478 -0.468364
v 5.588084 0.092813 -0.468364
vn -0.0000 0.9678 -0.2516
vn -0.0000 -0.0000 1.0000
vn 1.0000 -0.0000 -0.0000
vn -1.0000 -0.0000 -0.0000
vn -0.0000 -0.0000 -1.0000
vn -0.0000 -1.0000 -0.0000
vn -0.0000 -0.9678 0.2516
s 0
f 93//29 94//29 95//29
f 93//29 95//29 96//29
f 97//30 93//30 96//30
f 97//30 96//30 98//30
f 97//31 99//31 94//31
f 93//31 97//31 94//31
f 100//32 98//32 95//32
f 98//32 96//32 95//32
f 101//33 102//33 100//33
f 95//33 101//33 100//33
f 99//33 103//33 104//33
f 94//33 104//33 101//33
f 94//33 99//33 104//33
f 94//33 101//33 95//33
f 100//34 105//34 98//34
f 106//34 98//34 105//34
f 97//34 98//34 106//34
f 102//34 105//34 100//34
f 99//34 106//34 103//34
f 99//34 97//34 106//34
f 104//35 107//35 101//35
f 104//35 108//35 107//35
f 108//33 106//33 107//33
f 107//33 106//33 105//33
f 109//32 106//32 110//32
f 106//32 108//32 110//32
f 105//31 102//31 101//31
f 107//31 105//31 101//31
o terrain2.003
v 6.131531 0.243478 -0.484067
v 5.631531 0.113478 -0.484066
v 5.631531 0.113478 0.015933
v 6.131531 0.243478 0.015933
v 6.131531 0.083478 -0.484066
v 6.131531 0.083478 0.015933
v 5.631531 0.083478 -0.484066
v 5.631531 0.083478 0.015933
v 5.631531 0.092813 -0.004067
v 5.631531 0.083478 -0.004067
v 5.631531 0.083478 -0.464067
v 5.631531 0.092813 -0.464067
v 6.111531 0.083478 -0.004067
v 6.111531 0.083478 -0.464067
v 6.111531 0.217613 -0.004067
v 6.111531 0.217613 -0.464067
v 5.631531 0.083478 -0.464067
v 5.631531 0.092813 -0.464067
vn -0.2516 0.9678 -0.0000
vn 1.0000 -0.0000 -0.0000
vn -0.0000 -0.0000 -1.0000
vn -0.0000 -0.0000 1.0000
vn -1.0000 -0.0000 -0.0000
vn -0.0000 -1.0000 -0.0000
vn 0.2516 -0.9678 -0.0000
s 0
f 111//36 112//36 113//36
f 111//36 113//36 114//36
f 115//37 111//37 114//37
f 115//37 114//37 116//37
f 115//38 117//38 112//38
f 111//38 115//38 112//38
f 118//39 116//39 113//39
f 116//39 114//39 113//39
f 119//40 120//40 118//40
f 113//40 119//40 118//40
f 117//40 121//40 122//40
f 112//40 122//40 119//40
f 112//40 117//40 122//40
f 112//40 119//40 113//40
f 118//41 123//41 116//41
f 124//41 116//41 123//41
f 115//41 116//41 124//41
f 120//41 123//41 118//41
f 117//41 124//41 121//41
f 117//41 115//41 124//41
f 122//42 125//42 119//42
f 122//42 126//42 125//42
f 126//40 124//40 125//40
f 125//40 124//40 123//40
f 127//39 124//39 128//39
f 124//39 126//39 128//39
f 123//38 120//38 119//38
f 125//38 123//38 119//38
o terrain4.001
v 8.922175 0.122378 0.623093
v 7.722177 0.122378 0.623093
v 7.722177 0.002378 0.623093
v 8.922175 0.002378 0.623093
v 7.722177 0.122377 -0.576906
v 7.722177 0.002378 -0.576906
v 8.922175 0.122377 -0.576906
v 8.922175 0.002378 -0.576906
v 8.872175 0.122377 -0.526906
v 7.772176 0.122377 -0.526906
v 7.772176 0.122378 0.573093
v 8.872175 0.122378 0.573093
v 7.772176 0.022378 -0.526906
v 7.772176 0.022378 0.573093
v 8.872175 0.022378 -0.526906
v 8.872175 0.022378 0.573093
vn -0.0000 -0.0000 1.0000
vn -1.0000 -0.0000 -0.0000
vn 1.0000 -0.0000 -0.0000
vn -0.0000 1.0000 -0.0000
vn -0.0000 -1.0000 -0.0000
vn -0.0000 -0.0000 -1.0000
s 0
f 129//43 130//43 131//43
f 129//43 131//43 132//43
f 130//44 133//44 134//44
f 130//44 134//44 131//44
f 135//45 129//45 132//45
f 135//45 132//45 136//45
f 133//46 137//46 135//46
f 138//46 137//46 133//46
f 130//46 139//46 133//46
f 133//46 139//46 138//46
f 140//46 129//46 137//46
f 137//46 129//46 135//46
f 130//46 129//46 139//46
f 139//46 129//46 140//46
f 132//47 131//47 134//47
f 132//47 134//47 136//47
f 133//48 135//48 136//48
f 133//48 136//48 134//48
f 138//45 139//45 141//45
f 141//45 139//45 142//45
f 137//43 138//43 143//43
f 143//43 138//43 141//43
f 140//44 137//44 144//44
f 144//44 137//44 143//44
f 139//48 140//48 142//48
f 142//48 140//48 144//48
f 142//46 144//46 141//46
f 141//46 144//46 143//46
o terrain5
v 8.918190 0.152377 -0.576906
v 7.718191 0.122377 -0.576906
v 7.718191 0.152377 -0.576906
v 8.918190 0.122377 -0.576906
v 7.718191 0.122378 0.623093
v 7.718191 0.152378 0.623093
v 8.918190 0.152378 0.623093
v 8.918190 0.122378 0.623093
v 7.818191 0.122378 0.273094
v 7.818191 0.122378 0.523093
v 8.068191 0.122378 0.523093
v 8.193191 0.122378 -0.101906
v 8.068191 0.122378 0.273094
v 8.193191 0.122378 0.148094
v 8.443191 0.122378 0.148094
v 8.443191 0.122378 -0.101906
v 8.818191 0.122378 -0.226906
v 8.568191 0.122378 -0.226906
v 8.568191 0.122378 -0.476906
v 8.818191 0.122378 -0.476906
v 8.068191 0.152378 0.523093
v 7.818191 0.152378 0.523093
v 7.818191 0.152378 0.273094
v 8.193191 0.152378 -0.101906
v 8.068191 0.152378 0.273094
v 8.193191 0.152378 0.148094
v 8.443191 0.152378 0.148094
v 8.568191 0.152377 -0.476906
v 8.443191 0.152378 -0.101906
v 8.568191 0.152378 -0.226906
v 8.818191 0.152378 -0.226906
v 8.818191 0.152377 -0.476906
vn -0.0000 -0.0000 -1.0000
vn -1.0000 -0.0000 -0.0000
vn 1.0000 -0.0000 -0.0000
vn -0.0000 -1.0000 -0.0000
vn -0.0000 1.0000 -0.0000
vn -0.0000 -0.0000 1.0000
s 0
f 145//49 146//49 147//49
f 148//49 146//49 145//49
f 147//50 149//50 150//50
f 146//50 149//50 147//50
f 151//51 148//51 145//51
f 152//51 148//51 151//51
f 149//52 153//52 154//52
f 154//52 155//52 149//52
f 149//52 146//52 153//52
f 155//52 152//52 149//52
f 153//52 156//52 157//52
f 157//52 156//52 158//52
f 146//52 156//52 153//52
f 157//52 159//52 155//52
f 158//52 159//52 157//52
f 155//52 159//52 152//52
f 160//52 161//52 159//52
f 162//52 161//52 160//52
f 159//52 161//52 152//52
f 156//52 163//52 160//52
f 160//52 163//52 162//52
f 146//52 163//52 156//52
f 163//52 148//52 164//52
f 164//52 148//52 161//52
f 161//52 148//52 152//52
f 146//52 148//52 163//52
f 165//53 166//53 150//53
f 167//53 150//53 166//53
f 151//53 165//53 150//53
f 147//53 150//53 167//53
f 168//53 167//53 169//53
f 168//53 169//53 170//53
f 168//53 147//53 167//53
f 171//53 169//53 165//53
f 171//53 170//53 169//53
f 171//53 165//53 151//53
f 172//53 168//53 173//53
f 172//53 173//53 174//53
f 172//53 147//53 168//53
f 175//53 173//53 171//53
f 175//53 174//53 173//53
f 175//53 171//53 151//53
f 145//53 172//53 176//53
f 145//53 176//53 175//53
f 145//53 175//53 151//53
f 145//53 147//53 172//53
f 150//54 152//54 151//54
f 149//54 152//54 150//54
f 154//51 153//51 166//51
f 166//51 153//51 167//51
f 155//49 154//49 165//49
f 165//49 154//49 166//49
f 157//50 155//50 169//50
f 169//50 155//50 165//50
f 153//54 157//54 167//54
f 167//54 157//54 169//54
f 158//51 156//51 170//51
f 170//51 156//51 168//51
f 159//49 158//49 171//49
f 171//49 158//49 170//49
f 160//50 159//50 173//50
f 173//50 159//50 171//50
f 156//54 160//54 168//54
f 168//54 160//54 173//54
f 162//51 163//51 174//51
f 174//51 163//51 172//51
f 161//49 162//49 175//49
f 175//49 162//49 174//49
f 164//50 161//50 176//50
f 176//50 161//50 175//50
f 163//54 164//54 172//54
f 172//54 164//54 176//54
